<svg width="92" height="32" fill="none" viewBox="0 0 92 32" xmlns="http://www.w3.org/2000/svg" aria-label="Platzi">
  <g fill="#0AE98A" clip-path="url(#platzi-logo-new_svg__a)">
    <path d="M25.3341 25.1352V6.10636h8.7706c1.8961 0 3.3546.55423 4.3853 1.66271s1.546 2.60593 1.546 4.47283c0 1.8669-.5153 3.3643-1.546 4.4728-1.0307 1.1085-2.4989 1.6627-4.3853 1.6627h-5.4743v6.7481h-3.306l.0097.0097Zm3.306-9.6749h5.2604c.8362 0 1.4877-.2139 1.9642-.6514.4667-.4376.7-1.0599.7-1.8669v-1.3905c0-.807-.2333-1.4391-.7-1.8669-.4668-.43756-1.1182-.65148-1.9642-.65148h-5.2604v6.43698-.0098Zm32.7973 9.6749c-.8362 0-1.4779-.2431-1.9349-.7195-.4473-.4765-.7196-1.089-.8168-1.828h-.1459c-.2917.9529-.8265 1.6821-1.6043 2.1683-.7779.4862-1.7211.7293-2.8393.7293-1.5752 0-2.7906-.4084-3.6463-1.2252-.8557-.8168-1.2738-1.9252-1.2738-3.306 0-1.5168.5543-2.6642 1.653-3.4226 1.0988-.7585 2.7129-1.1377 4.8423-1.1377h2.7517v-1.2835c0-.9334-.2528-1.653-.7584-2.1683-.5056-.5057-1.2932-.7585-2.3725-.7585-.8946 0-1.6238.1945-2.1975.5834-.564.389-1.0404.8849-1.4294 1.4877l-1.9058-1.721c.5056-.8557 1.2155-1.5655 2.1392-2.1197.914-.55428 2.1197-.83626 3.5977-.83626 1.9738 0 3.481.45696 4.5311 1.37106 1.0502.914 1.5752 2.2364 1.5752 3.9477v7.6329h1.6044v2.6059H61.418h.0194Zm-6.4369-2.0808c.9918 0 1.8183-.2236 2.46-.6612.6418-.4376.9626-1.0307.9626-1.7697V18.426h-2.6934c-2.2072 0-3.3059.6807-3.3059 2.0517v.525c0 .6807.2333 1.196.6903 1.5363.457.3404 1.0891.5154 1.8864.5154Zm18.6885 2.0808v-2.5767l8.158-10.0346h-7.8954V9.87907l11.6681.03889V12.378L77.345 22.5293h8.4789v2.6059H73.689Zm-29.8414.0097c-1.0501 0-1.896-.8459-1.896-1.896V6.1258h3.1893v16.4133h2.11v2.6058h-3.4033ZM89.1105 8.02188c1.0471 0 1.896-.8489 1.896-1.89608 0-1.04717-.8489-1.89608-1.896-1.89608-1.0472 0-1.8961.84891-1.8961 1.89608 0 1.04718.8489 1.89608 1.8961 1.89608ZM63.4988 9.88879h-.282v2.64481h2.4406v9.3054c0 1.0501.282 1.8669.846 2.4406.5639.5736 1.4001.8653 2.5183.8653h2.781V22.539h-2.956V12.5336h3.1893V9.88879h-3.1893V6.10636h-2.8684v1.88635c0 1.04042-.846 1.88636-1.8864 1.88636h-.5931v.00972Zm24.017.0389h3.1893V25.1352h-3.1893V9.92769Z"/>
    <path fill-rule="evenodd" d="M9.65013 4.80341 1.57964 12.8739c-1.4876962 1.4877-1.4876962 3.8991 0 5.3868l8.08022 8.0802c1.48764 1.4877 3.89914 1.4877 5.38684 0l2.6934-2.6934-2.6934-2.6934-2.6934 2.6934-8.08026-8.0802 8.07046-8.07049 5.3868 5.38679-5.3868 5.3868 2.6934 2.6934 5.3869-5.3868c1.4876-1.4877 1.4876-3.8991 0-5.3868l-5.3869-5.38679c-1.4876-1.4877-3.8991-1.4877-5.38677 0Z" clip-rule="evenodd"/>
  </g>
  <defs>
    <clipPath id="platzi-logo-new_svg__a">
      <path fill="#fff" d="M.461426 0h91.0769v32H.461426z"/>
    </clipPath>
  </defs>
</svg>
